<svg width="428" height="93" viewBox="0 0 428 93" fill="none" xmlns="http://www.w3.org/2000/svg">
<rect x="-0.434753" y="54.3511" width="428" height="26" transform="rotate(-6.50609 -0.434753 54.3511)" fill="#FFDC23"/>
<path d="M26.0723 51.1256L2.42556 53.8223L3.0244 59.0733L26.6711 56.3765L26.0723 51.1256ZM23.7925 58.0082L17.2548 58.7538L17.405 62.5412L13.4407 62.9933L12.7341 59.2693L6.19652 60.0149L6.90303 63.7388L3.59944 64.1156L4.19431 69.3318L27.841 66.635L27.2462 61.4188L23.9426 61.7956L23.7925 58.0082ZM19.457 69.1059L12.9194 69.8515L13.2486 72.7378L3.99851 73.7927L4.59338 79.0089L29.6311 76.1535L29.0362 70.9373L19.7862 71.9922L19.457 69.1059ZM44.5606 58.8454C43.4812 60.7064 42.0389 62.2682 40.2336 63.5309C38.4516 64.7909 36.412 65.6458 34.1149 66.0957L32.1687 61.3859C33.9174 61.069 35.4201 60.3458 36.6768 59.2161C37.9336 58.0864 38.8636 56.6652 39.4667 54.9525C40.0904 53.214 40.3194 51.3091 40.1536 49.2379L46.6912 48.4923C46.9961 50.5477 47.6365 52.3534 48.6124 53.9095C49.6089 55.4398 50.8466 56.6138 52.3254 57.4315C53.8043 58.2492 55.4312 58.6155 57.2064 58.5305L56.3706 63.5576C54.0311 63.6365 51.8398 63.2641 49.7967 62.4403C47.7767 61.6138 46.0313 60.4155 44.5606 58.8454ZM33.7986 75.6782L33.2037 70.462L58.2414 67.6067L58.8363 72.8229L33.7986 75.6782ZM67.9447 51.423L85.0538 49.4718L84.4907 44.5338L60.8439 47.2305L62.8189 64.5483L86.4656 61.8515L85.9025 56.9136L68.7934 58.8647L68.6506 57.6128L85.412 55.7013L84.8488 50.7633L68.0875 52.6749L67.9447 51.423ZM87.4784 64.5542L62.4407 67.4096L63.0038 72.3476L88.0415 69.4922L87.4784 64.5542ZM101.387 50.7091L125.103 48.0044L124.707 44.5269L121.403 44.9037L121.354 43.8525L124.588 43.4837L124.187 39.9715L100.471 42.6761L100.871 46.1884L104.071 45.8235L104.294 46.8549L100.99 47.2316L101.387 50.7091ZM110.832 46.1093L110.608 45.078L114.816 44.5981L114.865 45.6493L110.832 46.1093ZM101.239 55.5873L126.346 52.724L125.914 48.9335L100.806 51.7969L101.239 55.5873ZM126.662 61.6708L125.765 53.8118L102.049 56.5164L102.438 59.9243L119.616 57.9652L119.731 58.9737L102.553 60.9328L103.449 68.7919L127.513 66.0475L127.121 62.6048L109.594 64.6036L109.483 63.6299L126.662 61.6708ZM148.556 36.8753L154.746 36.1694L156.816 54.3217L150.626 55.0276L149.853 48.2466L148.81 48.3656L149.504 54.4511L143.383 55.1491L141.393 37.6923L147.513 36.9943L148.211 43.1146L149.254 42.9956L148.556 36.8753ZM141.667 49.6733L142.147 53.8811L130.845 55.17L129.711 45.2244L134.51 44.6771L134.323 43.0427L129.524 43.59L129.044 39.3823L139.686 38.1687L140.82 48.1143L136.021 48.6616L136.207 50.296L141.667 49.6733ZM139.628 55.5774L140.056 59.3331L157.165 57.3819L157.76 62.5981L134.113 65.2948L133.09 56.323L139.628 55.5774ZM166.767 40.1529L183.876 38.2018L183.313 33.2638L159.666 35.9605L161.641 53.2783L185.288 50.5815L184.725 45.6435L167.616 47.5947L167.473 46.3428L184.234 44.4313L183.671 39.4933L166.91 41.4048L166.767 40.1529ZM186.301 53.2842L161.263 56.1396L161.826 61.0776L186.864 58.2222L186.301 53.2842ZM216.367 29.142L222.904 28.3964L225.918 54.8251L219.381 55.5707L216.367 29.142ZM210.161 36.5075C210.447 39.0113 210.934 41.222 211.622 43.1397C212.31 45.0574 213.125 46.538 214.066 47.5814C215.03 48.6222 216.029 49.1424 217.062 49.142L216.306 54.8645C215.043 54.9146 213.74 54.6053 212.395 53.9366C211.048 53.2448 209.81 52.1649 208.679 50.6968C207.885 52.3843 206.91 53.7167 205.753 54.6941C204.594 55.6483 203.394 56.2431 202.152 56.4786L200.127 51.0733C201.94 50.7022 203.153 49.2956 203.767 46.8537C204.381 44.4117 204.461 41.197 204.006 37.2095L203.296 30.9848L209.451 30.2829L210.161 36.5075ZM246.631 25.6905L252.821 24.9846L255.835 51.4133L249.645 52.1192L248.416 41.3391L247.338 41.462L248.528 51.8944L242.338 52.6003L239.363 26.5193L245.553 25.8134L246.743 36.2458L247.821 36.1229L246.631 25.6905ZM234.225 32.7416L235.851 46.9992L240.372 46.4836L240.967 51.6998L229.943 52.957L227.128 28.267L237.49 27.0852L238.085 32.3014L234.225 32.7416ZM281.41 21.6537L274.873 22.3993L276.99 40.9689L283.528 40.2234L282.715 33.0946L285.323 32.7971L284.724 27.5462L282.116 27.8436L281.41 21.6537ZM257.704 30.6276L258.89 41.0252L274.4 39.2565L273.88 34.701L264.908 35.7242L264.761 34.4375L273.038 33.4936L271.852 23.096L257.038 24.7855L257.558 29.341L265.834 28.3971L265.981 29.6837L257.704 30.6276ZM266.27 41.487L259.732 42.2326L260.716 50.8567L284.432 48.152L283.837 42.9358L266.659 44.8949L266.27 41.487ZM322.4 30.5767L320.909 17.5014L297.263 20.1982L298.754 33.2734L322.4 30.5767ZM304.692 27.2769L304.395 24.6688L314.966 23.4632L315.264 26.0713L304.692 27.2769ZM323.393 33.1054L298.356 35.9608L298.954 41.2118L308.204 40.1569L308.799 45.3731L315.337 44.6275L314.742 39.4113L323.992 38.3564L323.393 33.1054ZM335.27 30.7294C332.813 31.0096 330.821 30.6379 329.295 29.6142C327.79 28.5647 326.916 26.9735 326.672 24.8406L326.514 23.4497C326.271 21.3168 326.765 19.5812 327.998 18.2429C329.252 16.8788 331.107 16.0566 333.565 15.7763C335.605 15.5436 337.322 15.7706 338.715 16.4571C340.132 17.141 341.126 18.2371 341.697 19.7454L344.166 19.4639L343.615 14.6302L350.083 13.8925L351.903 29.8541L345.435 30.5917L344.8 25.0278L342.262 25.3173C341.988 26.8281 341.247 28.0516 340.038 28.9879C338.83 29.9242 337.241 30.5047 335.27 30.7294ZM333.319 24.4349C333.362 24.8058 333.5 25.0953 333.735 25.3033C333.991 25.4855 334.304 25.5555 334.675 25.5132C335.069 25.4683 335.359 25.3296 335.544 25.0971C335.726 24.8415 335.796 24.5282 335.754 24.1573L335.516 22.0708C335.471 21.6767 335.332 21.3872 335.099 21.2024C334.867 21.0175 334.554 20.9476 334.16 20.9925C333.789 21.0348 333.499 21.1735 333.291 21.4086C333.106 21.641 333.036 21.9543 333.081 22.3484L333.319 24.4349ZM352.749 40.3609C350.338 40.6359 348.113 40.5843 346.073 40.2063C344.055 39.8024 342.319 39.0963 340.865 38.0878C339.676 39.3977 338.131 40.478 336.232 41.3286C334.354 42.1535 332.209 42.7034 329.798 42.9783L328.507 37.8415C331.058 37.5506 333.095 36.8838 334.62 35.841C336.142 34.7749 336.873 33.353 336.811 31.5753L343.348 30.8297C343.689 32.5757 344.72 33.7967 346.443 34.4926C348.164 35.1653 350.299 35.3562 352.85 35.0654L352.749 40.3609ZM372.48 11.3383L374.598 29.9079L381.136 29.1623L379.018 10.5927L372.48 11.3383ZM362.435 12.8361C359.862 13.1296 357.993 14.0355 356.827 15.554C355.682 17.0467 355.262 19.1261 355.566 21.7921C355.87 24.4582 356.749 26.4011 358.203 27.6208C359.678 28.8147 361.702 29.265 364.275 28.9715C366.849 28.678 368.708 27.785 369.853 26.2923C371.018 24.7738 371.449 22.6815 371.145 20.0155C370.841 17.3494 369.951 15.4194 368.477 14.2255C367.022 13.0058 365.009 12.5426 362.435 12.8361ZM363.03 18.0523C363.888 17.9545 364.367 18.346 364.468 19.227L364.817 22.2871C364.917 23.1681 364.538 23.6575 363.681 23.7553C362.823 23.8531 362.344 23.4616 362.243 22.5806L361.894 19.5204C361.794 18.6395 362.172 18.1501 363.03 18.0523ZM357.34 31.1715L358.316 39.7261L382.067 37.0174L381.468 31.7665L364.254 33.7295L363.878 30.4259L357.34 31.1715ZM407.576 7.3358L401.039 8.08137L404.053 34.5101L410.59 33.7645L409.317 22.6018L411.925 22.3044L411.33 17.0882L408.722 17.3857L407.576 7.3358ZM386.477 35.4577C389.328 35.1325 391.751 34.0342 393.745 32.1629C395.763 30.2889 397.204 27.7878 398.068 24.6597C398.953 21.5058 399.167 17.9235 398.709 13.9129L398.115 8.69666L383.266 10.3901L383.861 15.6063L392.172 14.6584C392.582 18.2518 392.448 21.2026 391.772 23.5107C391.093 25.7957 390.145 27.4656 388.927 28.5204C387.708 29.5752 386.462 30.1754 385.186 30.3208L386.477 35.4577ZM419.098 26.5238C420.026 26.4181 420.825 26.6322 421.497 27.1662C422.191 27.6976 422.594 28.4501 422.705 29.4238C422.816 30.3975 422.593 31.2214 422.036 31.8956C421.502 32.5671 420.771 32.9557 419.844 33.0615C418.917 33.1672 418.104 32.9428 417.407 32.3883C416.71 31.8337 416.308 31.0928 416.202 30.1654C416.091 29.1917 416.314 28.3678 416.871 27.6937C417.429 27.0195 418.171 26.6296 419.098 26.5238ZM424.869 11.9511C424.964 12.7857 424.992 13.5457 424.953 14.2313C424.937 14.9141 424.847 15.5702 424.684 16.1994C424.544 16.8259 424.323 17.4617 424.021 18.1068C423.74 18.726 423.394 19.3996 422.984 20.1274C422.453 21.0334 422.071 21.8049 421.838 22.4421C421.603 23.056 421.532 23.7687 421.624 24.5801L416.06 25.2146C415.97 24.4264 415.938 23.7256 415.962 23.1123C416.006 22.4731 416.091 21.8764 416.215 21.322C416.363 20.765 416.56 20.2259 416.806 19.7047C417.052 19.1835 417.33 18.6351 417.64 18.0596C417.932 17.5331 418.172 17.0595 418.358 16.639C418.545 16.2184 418.699 15.8135 418.819 15.424C418.936 15.0114 419.006 14.5925 419.028 14.1672C419.05 13.742 419.032 13.2744 418.973 12.7644L418.969 12.7296C418.917 12.2659 418.647 12.0619 418.16 12.1174C417.696 12.1703 417.491 12.4285 417.544 12.8922L417.758 14.77L412.234 15.7523L411.62 13.4621C411.398 11.5147 411.806 9.94168 412.843 8.74307C413.878 7.52127 415.439 6.79139 417.525 6.55345C419.635 6.31285 421.332 6.67126 422.615 7.62867C423.896 8.5629 424.647 10.0037 424.869 11.9511Z" fill="black"/>
</svg>
