<svg width="223" height="154" viewBox="0 0 223 154" fill="none" xmlns="http://www.w3.org/2000/svg">
<path d="M0.5 20C0.5 9.23045 9.23045 0.5 20 0.5H203C213.77 0.5 222.5 9.23045 222.5 20V112.661C222.5 123.43 213.77 132.161 203 132.161H157.153C154.343 132.161 151.577 132.745 148.989 133.818C132.049 140.84 110.188 147.893 95.7427 151.338C92.1322 152.199 88.9941 152.833 86.5168 153.184C85.278 153.36 84.212 153.464 83.3391 153.492C82.4576 153.521 81.8071 153.47 81.3819 153.355C81.1702 153.298 81.0457 153.234 80.979 153.181C80.9217 153.136 80.9178 153.109 80.9161 153.098C80.9124 153.075 80.9107 153.001 80.9805 152.856C81.0501 152.71 81.1769 152.524 81.3828 152.293C82.2211 151.355 84.0953 149.99 87.2697 148.135C89.0572 147.091 90.7732 145.828 92.1782 144.263C94.9804 141.142 96.5892 138.835 97.3369 137.12C98.0832 135.408 98.0278 134.132 97.2096 133.283C96.8258 132.885 96.3162 132.632 95.775 132.468C95.2321 132.303 94.6267 132.217 94.0187 132.173C93.1734 132.113 92.2634 132.131 91.4678 132.148C91.1346 132.154 90.8214 132.161 90.5414 132.161H20C9.23047 132.161 0.5 123.43 0.5 112.661V20Z" fill="white" stroke="black"/>
</svg>
