<svg width="233" height="154" viewBox="0 0 233 154" fill="none" xmlns="http://www.w3.org/2000/svg">
<path d="M213 0.5H20C9.23044 0.5 0.5 9.23045 0.5 20V112.661C0.5 123.43 9.23045 132.161 20 132.161H69.1509C71.8519 132.161 74.5159 132.701 77.0188 133.697C94.7367 140.749 117.713 147.853 132.893 151.323C136.687 152.19 139.985 152.829 142.588 153.183C143.89 153.36 145.01 153.464 145.927 153.492C146.853 153.521 147.539 153.469 147.988 153.352C148.212 153.293 148.344 153.227 148.415 153.172C148.476 153.125 148.477 153.1 148.478 153.094C148.481 153.074 148.483 153.001 148.407 152.853C148.331 152.705 148.194 152.515 147.973 152.281C147.075 151.33 145.083 149.949 141.722 148.076C139.935 147.081 138.205 145.858 136.781 144.345C133.828 141.205 132.13 138.884 131.336 137.158C130.543 135.434 130.592 134.141 131.446 133.284C131.843 132.886 132.371 132.633 132.932 132.469C133.496 132.304 134.126 132.218 134.761 132.174C135.644 132.113 136.594 132.131 137.427 132.148C137.776 132.154 138.104 132.161 138.398 132.161H213C223.77 132.161 232.5 123.43 232.5 112.661V20C232.5 9.23045 223.77 0.5 213 0.5Z" fill="white" stroke="black"/>
</svg>
