<svg width="174" height="174" viewBox="0 0 174 174" fill="none" xmlns="http://www.w3.org/2000/svg">
<g filter="url(#filter0_d_235_12)">
<rect x="4" width="166" height="166" rx="30" fill="white"/>
<rect x="12.5" y="8.5" width="149" height="149" rx="21.5" stroke="#5634AE" stroke-width="17"/>
</g>
<path d="M59.3745 55.792C59.6732 55.7067 59.9505 55.6427 60.2065 55.6C60.4625 55.5147 60.7185 55.4507 60.9745 55.408C61.2732 55.3227 61.6358 55.28 62.0625 55.28C62.5318 55.2373 62.9585 55.2587 63.3425 55.344C63.7692 55.3867 64.1532 55.5147 64.4945 55.728C64.8785 55.8987 65.1558 56.176 65.3265 56.56C65.4972 56.9867 65.6038 57.4987 65.6465 58.096C65.7318 58.6507 65.7745 59.2267 65.7745 59.824C65.7745 60.4213 65.7532 61.0187 65.7105 61.616C65.7105 62.1707 65.7105 62.6827 65.7105 63.152V95.856C65.7105 96.3253 65.7105 96.816 65.7105 97.328C65.7532 97.7973 65.7532 98.288 65.7105 98.8C65.6678 99.312 65.5398 99.8027 65.3265 100.272C65.1132 100.699 64.7932 101.061 64.3665 101.36C63.7692 101.829 62.9585 102.064 61.9345 102.064C60.9532 102.107 60.0998 102 59.3745 101.744C58.6065 101.488 58.1372 100.997 57.9665 100.272C57.8385 99.5467 57.7745 98.8213 57.7745 98.096C57.4758 92.464 57.3265 86.96 57.3265 81.584C57.3692 76.1653 57.3905 70.5973 57.3905 64.88C57.3052 65.0933 57.0065 65.2853 56.4945 65.456C56.0252 65.6267 55.4705 65.776 54.8305 65.904C54.2332 66.032 53.6572 66.1387 53.1025 66.224C52.5478 66.3093 52.1852 66.352 52.0145 66.352C50.9052 66.48 49.8812 66.3733 48.9425 66.032C48.0465 65.648 47.5345 64.7947 47.4065 63.472C47.2358 62.1067 47.5345 61.04 48.3025 60.272C49.1132 59.504 50.1372 58.928 51.3745 58.544C52.7398 58.0747 54.0625 57.6053 55.3425 57.136C56.6652 56.624 58.0092 56.176 59.3745 55.792ZM79.415 91.248C79.5003 91.2053 79.863 91.2053 80.503 91.248C81.1857 91.248 81.9323 91.2693 82.743 91.312C83.5963 91.312 84.407 91.3333 85.175 91.376C85.943 91.376 86.455 91.376 86.711 91.376C86.711 91.12 86.711 90.6933 86.711 90.096C86.7537 89.4987 86.7963 88.8373 86.839 88.112C86.8817 87.3867 86.903 86.6613 86.903 85.936C86.9457 85.168 86.9883 84.528 87.031 84.016C86.647 83.9307 86.263 83.8453 85.879 83.76C85.5377 83.632 85.1963 83.4827 84.855 83.312C83.6603 82.8 82.5297 82.1813 81.463 81.456C80.439 80.7307 79.543 79.8987 78.775 78.96C78.007 77.9787 77.4097 76.8907 76.983 75.696C76.5563 74.5013 76.343 73.2 76.343 71.792C76.343 70.256 76.5563 68.8907 76.983 67.696C77.4097 66.5013 77.9857 65.4347 78.711 64.496H78.007C76.983 64.496 76.087 64.176 75.319 63.536C74.5937 62.8533 74.231 62.0427 74.231 61.104C74.231 60.1227 74.5937 59.312 75.319 58.672C76.087 57.9893 76.983 57.648 78.007 57.648H86.455V55.024C86.455 54.1707 86.8177 53.488 87.543 52.976C88.2683 52.4213 89.143 52.144 90.167 52.144C91.2337 52.144 92.1297 52.4213 92.855 52.976C93.5803 53.488 93.943 54.1707 93.943 55.024V57.648H102.775C103.842 57.648 104.738 57.9893 105.463 58.672C106.231 59.312 106.615 60.1227 106.615 61.104C106.615 62.0427 106.231 62.8533 105.463 63.536C104.738 64.176 103.842 64.496 102.775 64.496H102.583C103.308 65.4347 103.884 66.5013 104.311 67.696C104.78 68.8907 105.015 70.256 105.015 71.792C105.015 73.7973 104.567 75.6107 103.671 77.232C102.775 78.8107 101.516 80.2187 99.895 81.456C98.3163 82.608 96.567 83.44 94.647 83.952C94.6897 84.464 94.711 85.0827 94.711 85.808C94.7537 86.5333 94.775 87.28 94.775 88.048C94.775 88.7733 94.775 89.4347 94.775 90.032C94.775 90.6293 94.775 91.056 94.775 91.312V91.376H103.287C104.695 91.376 105.826 91.632 106.679 92.144C107.148 92.4427 107.511 92.848 107.767 93.36C108.023 93.8293 108.172 94.3413 108.215 94.896C108.3 95.4507 108.279 96.0053 108.151 96.56C108.066 97.1147 107.916 97.584 107.703 97.968C107.319 98.6507 106.764 99.0773 106.039 99.248C105.314 99.376 104.61 99.44 103.927 99.44H78.647C78.647 99.44 78.519 99.44 78.263 99.44C78.007 99.3973 77.7083 99.3547 77.367 99.312C77.0257 99.2267 76.663 99.1413 76.279 99.056C75.895 98.9707 75.5537 98.864 75.255 98.736C74.359 98.2667 73.8043 97.392 73.591 96.112C73.5057 95.4293 73.5483 94.7893 73.719 94.192C73.9323 93.5947 74.2523 93.104 74.679 92.72C75.447 92.08 76.2363 91.6747 77.047 91.504C77.9003 91.3333 78.6897 91.248 79.415 91.248ZM121.975 74.032C122.188 73.9893 122.38 73.9893 122.551 74.032C122.764 74.0747 122.978 74.096 123.191 74.096C123.447 74.1387 123.682 74.1813 123.895 74.224C124.151 74.224 124.407 74.2453 124.663 74.288C125.132 74.3733 125.602 74.544 126.071 74.8C126.54 75.0133 126.903 75.3547 127.159 75.824C127.415 76.336 127.543 76.912 127.543 77.552C127.543 77.8507 127.543 78.1493 127.543 78.448C127.543 78.7467 127.5 79.0453 127.415 79.344C127.33 79.6853 127.223 80.048 127.095 80.432C126.967 80.816 126.775 81.1147 126.519 81.328C125.964 81.7547 125.367 82.032 124.727 82.16C124.044 82.2453 123.212 82.2667 122.231 82.224C121.25 82.1813 120.418 82.1813 119.735 82.224C119.692 82.2667 119.65 82.288 119.607 82.288H119.543V82.352C119.543 82.3947 119.522 82.4373 119.479 82.48C119.479 82.48 119.479 82.5013 119.479 82.544C119.436 83.6107 119.415 84.6347 119.415 85.616C119.458 86.5547 119.479 87.5787 119.479 88.688C119.564 90.9067 119.564 93.0827 119.479 95.216V96.112C119.479 96.6667 119.479 97.2853 119.479 97.968C119.479 98.608 119.415 99.248 119.287 99.888C119.202 100.528 119.052 101.147 118.839 101.744C118.668 102.341 118.391 102.832 118.007 103.216C117.367 103.771 116.663 104.048 115.895 104.048H115.767C114.743 104.005 113.911 103.685 113.271 103.088C112.674 102.533 112.226 101.851 111.927 101.04C111.628 100.229 111.436 99.3973 111.351 98.544C111.266 97.648 111.223 96.8587 111.223 96.176V58.16C111.223 58.1173 111.223 57.9253 111.223 57.584C111.223 57.2 111.244 56.7733 111.287 56.304C111.372 55.792 111.5 55.28 111.671 54.768C111.884 54.2133 112.162 53.7653 112.503 53.424C112.844 53.1253 113.292 52.912 113.847 52.784C114.402 52.6133 114.914 52.528 115.383 52.528C116.364 52.528 117.175 52.848 117.815 53.488C118.37 54.0853 118.711 54.7253 118.839 55.408C118.967 56.048 119.052 56.7307 119.095 57.456C119.138 57.584 119.159 57.712 119.159 57.84C119.159 57.968 119.18 58.1173 119.223 58.288C119.308 58.9707 119.351 59.696 119.351 60.464C119.351 61.232 119.372 62 119.415 62.768C119.415 63.2373 119.415 63.7067 119.415 64.176C119.458 64.6027 119.479 65.0507 119.479 65.52V72.432C119.479 72.6453 119.479 72.88 119.479 73.136C119.479 73.392 119.522 73.6267 119.607 73.84C119.607 73.8827 119.82 73.904 120.247 73.904C120.674 73.904 120.93 73.9253 121.015 73.968C121.143 73.968 121.271 73.9893 121.399 74.032C121.57 74.032 121.719 74.032 121.847 74.032H121.975ZM91.895 76.912C93.2603 76.656 94.455 76.144 95.479 75.376C96.503 74.608 97.015 73.4133 97.015 71.792C97.015 70.8533 96.823 70.064 96.439 69.424C96.0977 68.7413 95.6283 68.208 95.031 67.824C94.4763 67.3973 93.815 67.0773 93.047 66.864C92.279 66.6507 91.511 66.544 90.743 66.544C89.9323 66.5013 89.143 66.5653 88.375 66.736C87.607 66.9067 86.9243 67.2053 86.327 67.632C85.7297 68.016 85.239 68.5493 84.855 69.232C84.5137 69.9147 84.343 70.768 84.343 71.792C84.343 72.944 84.5563 73.904 84.983 74.672C85.4523 75.3973 86.0497 75.952 86.775 76.336C87.5003 76.72 88.311 76.9547 89.207 77.04C90.103 77.1253 90.999 77.0827 91.895 76.912Z" fill="#5634AE"/>
<defs>
<filter id="filter0_d_235_12" x="0" y="0" width="174" height="174" filterUnits="userSpaceOnUse" color-interpolation-filters="sRGB">
<feFlood flood-opacity="0" result="BackgroundImageFix"/>
<feColorMatrix in="SourceAlpha" type="matrix" values="0 0 0 0 0 0 0 0 0 0 0 0 0 0 0 0 0 0 127 0" result="hardAlpha"/>
<feOffset dy="4"/>
<feGaussianBlur stdDeviation="2"/>
<feComposite in2="hardAlpha" operator="out"/>
<feColorMatrix type="matrix" values="0 0 0 0 0 0 0 0 0 0 0 0 0 0 0 0 0 0 0.25 0"/>
<feBlend mode="normal" in2="BackgroundImageFix" result="effect1_dropShadow_235_12"/>
<feBlend mode="normal" in="SourceGraphic" in2="effect1_dropShadow_235_12" result="shape"/>
</filter>
</defs>
</svg>
