<svg width="174" height="174" viewBox="0 0 174 174" fill="none" xmlns="http://www.w3.org/2000/svg">
<g filter="url(#filter0_d_235_13)">
<rect x="4" width="166" height="166" rx="30" fill="white"/>
<rect x="12.5" y="8.5" width="149" height="149" rx="21.5" stroke="#5634AE" stroke-width="17"/>
</g>
<path d="M50.112 70.832C49.472 71.8133 48.704 72.4107 47.808 72.624C46.9547 72.8373 46.1227 72.7733 45.312 72.432C44.5013 72.0907 43.8187 71.536 43.264 70.768C42.752 69.9573 42.5387 69.04 42.624 68.016C42.6667 67.3333 42.8373 66.5867 43.136 65.776C43.4347 64.9653 43.7973 64.1973 44.224 63.472C44.6933 62.704 45.184 62 45.696 61.36C46.2507 60.6773 46.8053 60.1013 47.36 59.632C48.384 58.8213 49.536 58.1173 50.816 57.52C52.1387 56.9227 53.504 56.4747 54.912 56.176C56.3627 55.8773 57.792 55.7493 59.2 55.792C60.6507 55.8347 61.9947 56.048 63.232 56.432C66.6453 57.4987 69.2907 59.184 71.168 61.488C73.0453 63.792 73.984 66.7787 73.984 70.448C73.984 72.1973 73.8133 73.776 73.472 75.184C73.1733 76.5493 72.6187 77.872 71.808 79.152C71.04 80.432 69.9947 81.7333 68.672 83.056C67.392 84.3787 65.792 85.8293 63.872 87.408C63.232 87.9627 62.5707 88.5173 61.888 89.072C61.2053 89.6267 60.5227 90.1813 59.84 90.736C59.6267 90.9067 59.2213 91.1627 58.624 91.504C58.0267 91.8453 57.4933 92.1867 57.024 92.528C56.5547 92.8693 56.2773 93.1893 56.192 93.488C56.1067 93.7867 56.448 93.9573 57.216 94C58.1547 94.0853 58.9013 94.1067 59.456 94.064C60.0107 94.0213 60.7573 94 61.696 94C62.8053 94 63.8933 93.9787 64.96 93.936C66.0267 93.8933 67.0933 93.9147 68.16 94C68.5867 94.0427 69.056 94.064 69.568 94.064C70.08 94.0213 70.592 94.0213 71.104 94.064C71.616 94.064 72.1067 94.128 72.576 94.256C73.0453 94.3413 73.4507 94.5333 73.792 94.832C74.1333 95.1307 74.3893 95.536 74.56 96.048C74.7307 96.56 74.816 97.1147 74.816 97.712C74.8587 98.2667 74.816 98.8213 74.688 99.376C74.56 99.888 74.3467 100.293 74.048 100.592C73.4933 101.232 72.8107 101.552 72 101.552C71.1893 101.509 70.4213 101.488 69.696 101.488H46.72C46.2933 101.488 45.824 101.509 45.312 101.552C44.8427 101.595 44.416 101.552 44.032 101.424C43.264 101.211 42.88 100.805 42.88 100.208C42.9227 99.6107 42.944 98.992 42.944 98.352C42.944 97.2853 43.2 96.304 43.712 95.408C44.224 94.4693 44.864 93.616 45.632 92.848C46.4427 92.0373 47.296 91.2907 48.192 90.608C49.088 89.9253 49.92 89.264 50.688 88.624C51.7973 87.6427 52.992 86.6613 54.272 85.68C55.552 84.6987 56.768 83.7173 57.92 82.736C59.4133 81.4987 60.672 80.368 61.696 79.344C62.7627 78.32 63.616 77.36 64.256 76.464C64.896 75.568 65.3653 74.6933 65.664 73.84C65.9627 72.944 66.112 72.0053 66.112 71.024C66.112 68.848 65.4507 67.184 64.128 66.032C62.8053 64.8373 61.12 64.24 59.072 64.24C57.5787 64.24 56.1707 64.56 54.848 65.2C53.568 65.84 52.5013 66.7787 51.648 68.016C51.392 68.4853 51.136 68.976 50.88 69.488C50.6667 69.9573 50.4107 70.4053 50.112 70.832ZM84.4775 91.248C84.5628 91.2053 84.9255 91.2053 85.5655 91.248C86.2482 91.248 86.9948 91.2693 87.8055 91.312C88.6588 91.312 89.4695 91.3333 90.2375 91.376C91.0055 91.376 91.5175 91.376 91.7735 91.376C91.7735 91.12 91.7735 90.6933 91.7735 90.096C91.8162 89.4987 91.8588 88.8373 91.9015 88.112C91.9442 87.3867 91.9655 86.6613 91.9655 85.936C92.0082 85.168 92.0508 84.528 92.0935 84.016C91.7095 83.9307 91.3255 83.8453 90.9415 83.76C90.6002 83.632 90.2588 83.4827 89.9175 83.312C88.7228 82.8 87.5922 82.1813 86.5255 81.456C85.5015 80.7307 84.6055 79.8987 83.8375 78.96C83.0695 77.9787 82.4722 76.8907 82.0455 75.696C81.6188 74.5013 81.4055 73.2 81.4055 71.792C81.4055 70.256 81.6188 68.8907 82.0455 67.696C82.4722 66.5013 83.0482 65.4347 83.7735 64.496H83.0695C82.0455 64.496 81.1495 64.176 80.3815 63.536C79.6562 62.8533 79.2935 62.0427 79.2935 61.104C79.2935 60.1227 79.6562 59.312 80.3815 58.672C81.1495 57.9893 82.0455 57.648 83.0695 57.648H91.5175V55.024C91.5175 54.1707 91.8802 53.488 92.6055 52.976C93.3308 52.4213 94.2055 52.144 95.2295 52.144C96.2962 52.144 97.1922 52.4213 97.9175 52.976C98.6428 53.488 99.0055 54.1707 99.0055 55.024V57.648H107.838C108.904 57.648 109.8 57.9893 110.526 58.672C111.294 59.312 111.678 60.1227 111.678 61.104C111.678 62.0427 111.294 62.8533 110.526 63.536C109.8 64.176 108.904 64.496 107.838 64.496H107.646C108.371 65.4347 108.947 66.5013 109.374 67.696C109.843 68.8907 110.078 70.256 110.078 71.792C110.078 73.7973 109.63 75.6107 108.734 77.232C107.838 78.8107 106.579 80.2187 104.958 81.456C103.379 82.608 101.63 83.44 99.7095 83.952C99.7522 84.464 99.7735 85.0827 99.7735 85.808C99.8162 86.5333 99.8375 87.28 99.8375 88.048C99.8375 88.7733 99.8375 89.4347 99.8375 90.032C99.8375 90.6293 99.8375 91.056 99.8375 91.312V91.376H108.35C109.758 91.376 110.888 91.632 111.742 92.144C112.211 92.4427 112.574 92.848 112.83 93.36C113.086 93.8293 113.235 94.3413 113.278 94.896C113.363 95.4507 113.342 96.0053 113.214 96.56C113.128 97.1147 112.979 97.584 112.766 97.968C112.382 98.6507 111.827 99.0773 111.102 99.248C110.376 99.376 109.672 99.44 108.99 99.44H83.7095C83.7095 99.44 83.5815 99.44 83.3255 99.44C83.0695 99.3973 82.7708 99.3547 82.4295 99.312C82.0882 99.2267 81.7255 99.1413 81.3415 99.056C80.9575 98.9707 80.6162 98.864 80.3175 98.736C79.4215 98.2667 78.8668 97.392 78.6535 96.112C78.5682 95.4293 78.6108 94.7893 78.7815 94.192C78.9948 93.5947 79.3148 93.104 79.7415 92.72C80.5095 92.08 81.2988 91.6747 82.1095 91.504C82.9628 91.3333 83.7522 91.248 84.4775 91.248ZM127.038 74.032C127.251 73.9893 127.443 73.9893 127.614 74.032C127.827 74.0747 128.04 74.096 128.254 74.096C128.51 74.1387 128.744 74.1813 128.958 74.224C129.214 74.224 129.47 74.2453 129.726 74.288C130.195 74.3733 130.664 74.544 131.134 74.8C131.603 75.0133 131.966 75.3547 132.222 75.824C132.478 76.336 132.606 76.912 132.606 77.552C132.606 77.8507 132.606 78.1493 132.606 78.448C132.606 78.7467 132.563 79.0453 132.478 79.344C132.392 79.6853 132.286 80.048 132.158 80.432C132.03 80.816 131.838 81.1147 131.582 81.328C131.027 81.7547 130.43 82.032 129.79 82.16C129.107 82.2453 128.275 82.2667 127.294 82.224C126.312 82.1813 125.48 82.1813 124.798 82.224C124.755 82.2667 124.712 82.288 124.67 82.288H124.606V82.352C124.606 82.3947 124.584 82.4373 124.542 82.48C124.542 82.48 124.542 82.5013 124.542 82.544C124.499 83.6107 124.478 84.6347 124.478 85.616C124.52 86.5547 124.542 87.5787 124.542 88.688C124.627 90.9067 124.627 93.0827 124.542 95.216V96.112C124.542 96.6667 124.542 97.2853 124.542 97.968C124.542 98.608 124.478 99.248 124.35 99.888C124.264 100.528 124.115 101.147 123.902 101.744C123.731 102.341 123.454 102.832 123.07 103.216C122.43 103.771 121.726 104.048 120.958 104.048H120.83C119.806 104.005 118.974 103.685 118.334 103.088C117.736 102.533 117.288 101.851 116.99 101.04C116.691 100.229 116.499 99.3973 116.414 98.544C116.328 97.648 116.286 96.8587 116.286 96.176V58.16C116.286 58.1173 116.286 57.9253 116.286 57.584C116.286 57.2 116.307 56.7733 116.35 56.304C116.435 55.792 116.563 55.28 116.734 54.768C116.947 54.2133 117.224 53.7653 117.566 53.424C117.907 53.1253 118.355 52.912 118.91 52.784C119.464 52.6133 119.976 52.528 120.446 52.528C121.427 52.528 122.238 52.848 122.878 53.488C123.432 54.0853 123.774 54.7253 123.902 55.408C124.03 56.048 124.115 56.7307 124.158 57.456C124.2 57.584 124.222 57.712 124.222 57.84C124.222 57.968 124.243 58.1173 124.286 58.288C124.371 58.9707 124.414 59.696 124.414 60.464C124.414 61.232 124.435 62 124.478 62.768C124.478 63.2373 124.478 63.7067 124.478 64.176C124.52 64.6027 124.542 65.0507 124.542 65.52V72.432C124.542 72.6453 124.542 72.88 124.542 73.136C124.542 73.392 124.584 73.6267 124.67 73.84C124.67 73.8827 124.883 73.904 125.31 73.904C125.736 73.904 125.992 73.9253 126.078 73.968C126.206 73.968 126.334 73.9893 126.462 74.032C126.632 74.032 126.782 74.032 126.91 74.032H127.038ZM96.9575 76.912C98.3228 76.656 99.5175 76.144 100.542 75.376C101.566 74.608 102.078 73.4133 102.078 71.792C102.078 70.8533 101.886 70.064 101.502 69.424C101.16 68.7413 100.691 68.208 100.094 67.824C99.5388 67.3973 98.8775 67.0773 98.1095 66.864C97.3415 66.6507 96.5735 66.544 95.8055 66.544C94.9948 66.5013 94.2055 66.5653 93.4375 66.736C92.6695 66.9067 91.9868 67.2053 91.3895 67.632C90.7922 68.016 90.3015 68.5493 89.9175 69.232C89.5762 69.9147 89.4055 70.768 89.4055 71.792C89.4055 72.944 89.6188 73.904 90.0455 74.672C90.5148 75.3973 91.1122 75.952 91.8375 76.336C92.5628 76.72 93.3735 76.9547 94.2695 77.04C95.1655 77.1253 96.0615 77.0827 96.9575 76.912Z" fill="#5634AE"/>
<defs>
<filter id="filter0_d_235_13" x="0" y="0" width="174" height="174" filterUnits="userSpaceOnUse" color-interpolation-filters="sRGB">
<feFlood flood-opacity="0" result="BackgroundImageFix"/>
<feColorMatrix in="SourceAlpha" type="matrix" values="0 0 0 0 0 0 0 0 0 0 0 0 0 0 0 0 0 0 127 0" result="hardAlpha"/>
<feOffset dy="4"/>
<feGaussianBlur stdDeviation="2"/>
<feComposite in2="hardAlpha" operator="out"/>
<feColorMatrix type="matrix" values="0 0 0 0 0 0 0 0 0 0 0 0 0 0 0 0 0 0 0.25 0"/>
<feBlend mode="normal" in2="BackgroundImageFix" result="effect1_dropShadow_235_13"/>
<feBlend mode="normal" in="SourceGraphic" in2="effect1_dropShadow_235_13" result="shape"/>
</filter>
</defs>
</svg>
