<svg width="174" height="174" viewBox="0 0 174 174" fill="none" xmlns="http://www.w3.org/2000/svg">
<g filter="url(#filter0_d_235_14)">
<rect x="4" width="166" height="166" rx="30" fill="white"/>
<rect x="12.5" y="8.5" width="149" height="149" rx="21.5" stroke="#5634AE" stroke-width="17"/>
</g>
<path d="M44.773 62.896C44.2183 62.384 43.941 61.616 43.941 60.592C43.9837 60.1227 44.069 59.6747 44.197 59.248C44.325 58.7787 44.5597 58.3733 44.901 58.032C45.8397 57.1787 46.8423 56.688 47.909 56.56C48.9757 56.432 50.1277 56.3253 51.365 56.24C52.3463 56.1973 53.221 56.1973 53.989 56.24C54.757 56.24 55.6317 56.24 56.613 56.24C58.1063 56.24 59.7277 56.2613 61.477 56.304C63.269 56.3467 64.9543 56.4107 66.533 56.496C67.173 56.5387 67.813 56.624 68.453 56.752C69.093 56.88 69.669 57.1147 70.181 57.456C70.693 57.7547 71.0983 58.16 71.397 58.672C71.7383 59.1413 71.9303 59.7387 71.973 60.464C72.0157 61.3173 71.8877 62.128 71.589 62.896C71.333 63.664 70.9703 64.4107 70.501 65.136C70.0317 65.8187 69.4983 66.48 68.901 67.12C68.3463 67.7173 67.813 68.272 67.301 68.784C66.3623 69.7653 65.2957 70.8107 64.101 71.92C62.9063 73.0293 61.8397 74.0747 60.901 75.056C62.565 75.2693 64.165 75.6533 65.701 76.208C67.2797 76.7627 68.6663 77.5307 69.861 78.512C71.0557 79.4933 71.9943 80.7307 72.677 82.224C73.4023 83.6747 73.765 85.424 73.765 87.472C73.765 89.52 73.3597 91.4187 72.549 93.168C71.781 94.9173 70.693 96.4533 69.285 97.776C67.877 99.056 66.213 100.059 64.293 100.784C62.373 101.509 60.261 101.872 57.957 101.872C56.9757 101.872 55.909 101.787 54.757 101.616C53.6477 101.445 52.5383 101.189 51.429 100.848C50.3197 100.507 49.253 100.08 48.229 99.568C47.2477 99.0133 46.3943 98.352 45.669 97.584C45.157 97.072 44.709 96.4747 44.325 95.792C43.9837 95.0667 43.7703 94.3413 43.685 93.616C43.6423 92.848 43.7917 92.1653 44.133 91.568C44.4743 90.928 45.0717 90.4587 45.925 90.16C46.565 89.9467 47.1837 89.8613 47.781 89.904C48.3783 89.9467 48.9543 90.096 49.509 90.352C50.0637 90.5653 50.597 90.8213 51.109 91.12C51.6637 91.4187 52.197 91.7173 52.709 92.016C54.2877 92.9973 55.9303 93.5733 57.637 93.744C59.3863 93.9147 61.093 93.5093 62.757 92.528C63.6957 91.9733 64.3783 91.2907 64.805 90.48C65.2317 89.6267 65.4023 88.7733 65.317 87.92C65.2743 87.0667 64.997 86.256 64.485 85.488C64.0157 84.72 63.3543 84.08 62.501 83.568C61.6903 83.0987 60.7943 82.7787 59.813 82.608C58.8317 82.4373 57.8503 82.2667 56.869 82.096C55.8877 81.9253 54.949 81.6907 54.053 81.392C53.157 81.0933 52.389 80.5813 51.749 79.856C51.0237 79.0453 50.789 78.1707 51.045 77.232C51.301 76.2933 51.7703 75.376 52.453 74.48C53.1783 73.584 53.9677 72.7307 54.821 71.92C55.717 71.1093 56.421 70.4267 56.933 69.872C57.2317 69.5733 57.573 69.2107 57.957 68.784C58.3837 68.3573 58.7677 67.9307 59.109 67.504C59.493 67.0773 59.813 66.672 60.069 66.288C60.3677 65.8613 60.5597 65.4773 60.645 65.136C60.773 64.7947 60.709 64.56 60.453 64.432C60.197 64.2613 59.877 64.176 59.493 64.176C59.109 64.1333 58.6823 64.1333 58.213 64.176C57.7863 64.176 57.445 64.176 57.189 64.176H52.901C52.3037 64.176 51.6423 64.1973 50.917 64.24C50.1917 64.24 49.445 64.2187 48.677 64.176C47.9517 64.0907 47.2263 63.9627 46.501 63.792C45.8183 63.6213 45.2423 63.3227 44.773 62.896ZM83.3525 91.248C83.4378 91.2053 83.8005 91.2053 84.4405 91.248C85.1232 91.248 85.8698 91.2693 86.6805 91.312C87.5338 91.312 88.3445 91.3333 89.1125 91.376C89.8805 91.376 90.3925 91.376 90.6485 91.376C90.6485 91.12 90.6485 90.6933 90.6485 90.096C90.6912 89.4987 90.7338 88.8373 90.7765 88.112C90.8192 87.3867 90.8405 86.6613 90.8405 85.936C90.8832 85.168 90.9258 84.528 90.9685 84.016C90.5845 83.9307 90.2005 83.8453 89.8165 83.76C89.4752 83.632 89.1338 83.4827 88.7925 83.312C87.5978 82.8 86.4672 82.1813 85.4005 81.456C84.3765 80.7307 83.4805 79.8987 82.7125 78.96C81.9445 77.9787 81.3472 76.8907 80.9205 75.696C80.4938 74.5013 80.2805 73.2 80.2805 71.792C80.2805 70.256 80.4938 68.8907 80.9205 67.696C81.3472 66.5013 81.9232 65.4347 82.6485 64.496H81.9445C80.9205 64.496 80.0245 64.176 79.2565 63.536C78.5312 62.8533 78.1685 62.0427 78.1685 61.104C78.1685 60.1227 78.5312 59.312 79.2565 58.672C80.0245 57.9893 80.9205 57.648 81.9445 57.648H90.3925V55.024C90.3925 54.1707 90.7552 53.488 91.4805 52.976C92.2058 52.4213 93.0805 52.144 94.1045 52.144C95.1712 52.144 96.0672 52.4213 96.7925 52.976C97.5178 53.488 97.8805 54.1707 97.8805 55.024V57.648H106.713C107.779 57.648 108.675 57.9893 109.401 58.672C110.169 59.312 110.553 60.1227 110.553 61.104C110.553 62.0427 110.169 62.8533 109.401 63.536C108.675 64.176 107.779 64.496 106.713 64.496H106.521C107.246 65.4347 107.822 66.5013 108.249 67.696C108.718 68.8907 108.953 70.256 108.953 71.792C108.953 73.7973 108.505 75.6107 107.609 77.232C106.713 78.8107 105.454 80.2187 103.833 81.456C102.254 82.608 100.505 83.44 98.5845 83.952C98.6272 84.464 98.6485 85.0827 98.6485 85.808C98.6912 86.5333 98.7125 87.28 98.7125 88.048C98.7125 88.7733 98.7125 89.4347 98.7125 90.032C98.7125 90.6293 98.7125 91.056 98.7125 91.312V91.376H107.225C108.633 91.376 109.763 91.632 110.617 92.144C111.086 92.4427 111.449 92.848 111.705 93.36C111.961 93.8293 112.11 94.3413 112.153 94.896C112.238 95.4507 112.217 96.0053 112.089 96.56C112.003 97.1147 111.854 97.584 111.641 97.968C111.257 98.6507 110.702 99.0773 109.977 99.248C109.251 99.376 108.547 99.44 107.865 99.44H82.5845C82.5845 99.44 82.4565 99.44 82.2005 99.44C81.9445 99.3973 81.6458 99.3547 81.3045 99.312C80.9632 99.2267 80.6005 99.1413 80.2165 99.056C79.8325 98.9707 79.4912 98.864 79.1925 98.736C78.2965 98.2667 77.7418 97.392 77.5285 96.112C77.4432 95.4293 77.4858 94.7893 77.6565 94.192C77.8698 93.5947 78.1898 93.104 78.6165 92.72C79.3845 92.08 80.1738 91.6747 80.9845 91.504C81.8378 91.3333 82.6272 91.248 83.3525 91.248ZM125.913 74.032C126.126 73.9893 126.318 73.9893 126.489 74.032C126.702 74.0747 126.915 74.096 127.129 74.096C127.385 74.1387 127.619 74.1813 127.833 74.224C128.089 74.224 128.345 74.2453 128.601 74.288C129.07 74.3733 129.539 74.544 130.009 74.8C130.478 75.0133 130.841 75.3547 131.097 75.824C131.353 76.336 131.481 76.912 131.481 77.552C131.481 77.8507 131.481 78.1493 131.481 78.448C131.481 78.7467 131.438 79.0453 131.353 79.344C131.267 79.6853 131.161 80.048 131.033 80.432C130.905 80.816 130.713 81.1147 130.457 81.328C129.902 81.7547 129.305 82.032 128.665 82.16C127.982 82.2453 127.15 82.2667 126.169 82.224C125.187 82.1813 124.355 82.1813 123.673 82.224C123.63 82.2667 123.587 82.288 123.545 82.288H123.481V82.352C123.481 82.3947 123.459 82.4373 123.417 82.48C123.417 82.48 123.417 82.5013 123.417 82.544C123.374 83.6107 123.353 84.6347 123.353 85.616C123.395 86.5547 123.417 87.5787 123.417 88.688C123.502 90.9067 123.502 93.0827 123.417 95.216V96.112C123.417 96.6667 123.417 97.2853 123.417 97.968C123.417 98.608 123.353 99.248 123.225 99.888C123.139 100.528 122.99 101.147 122.777 101.744C122.606 102.341 122.329 102.832 121.945 103.216C121.305 103.771 120.601 104.048 119.833 104.048H119.705C118.681 104.005 117.849 103.685 117.209 103.088C116.611 102.533 116.163 101.851 115.865 101.04C115.566 100.229 115.374 99.3973 115.289 98.544C115.203 97.648 115.161 96.8587 115.161 96.176V58.16C115.161 58.1173 115.161 57.9253 115.161 57.584C115.161 57.2 115.182 56.7733 115.225 56.304C115.31 55.792 115.438 55.28 115.609 54.768C115.822 54.2133 116.099 53.7653 116.441 53.424C116.782 53.1253 117.23 52.912 117.785 52.784C118.339 52.6133 118.851 52.528 119.321 52.528C120.302 52.528 121.113 52.848 121.753 53.488C122.307 54.0853 122.649 54.7253 122.777 55.408C122.905 56.048 122.99 56.7307 123.033 57.456C123.075 57.584 123.097 57.712 123.097 57.84C123.097 57.968 123.118 58.1173 123.161 58.288C123.246 58.9707 123.289 59.696 123.289 60.464C123.289 61.232 123.31 62 123.353 62.768C123.353 63.2373 123.353 63.7067 123.353 64.176C123.395 64.6027 123.417 65.0507 123.417 65.52V72.432C123.417 72.6453 123.417 72.88 123.417 73.136C123.417 73.392 123.459 73.6267 123.545 73.84C123.545 73.8827 123.758 73.904 124.185 73.904C124.611 73.904 124.867 73.9253 124.953 73.968C125.081 73.968 125.209 73.9893 125.337 74.032C125.507 74.032 125.657 74.032 125.785 74.032H125.913ZM95.8325 76.912C97.1978 76.656 98.3925 76.144 99.4165 75.376C100.441 74.608 100.953 73.4133 100.953 71.792C100.953 70.8533 100.761 70.064 100.377 69.424C100.035 68.7413 99.5658 68.208 98.9685 67.824C98.4138 67.3973 97.7525 67.0773 96.9845 66.864C96.2165 66.6507 95.4485 66.544 94.6805 66.544C93.8698 66.5013 93.0805 66.5653 92.3125 66.736C91.5445 66.9067 90.8618 67.2053 90.2645 67.632C89.6672 68.016 89.1765 68.5493 88.7925 69.232C88.4512 69.9147 88.2805 70.768 88.2805 71.792C88.2805 72.944 88.4938 73.904 88.9205 74.672C89.3898 75.3973 89.9872 75.952 90.7125 76.336C91.4378 76.72 92.2485 76.9547 93.1445 77.04C94.0405 77.1253 94.9365 77.0827 95.8325 76.912Z" fill="#5634AE"/>
<defs>
<filter id="filter0_d_235_14" x="0" y="0" width="174" height="174" filterUnits="userSpaceOnUse" color-interpolation-filters="sRGB">
<feFlood flood-opacity="0" result="BackgroundImageFix"/>
<feColorMatrix in="SourceAlpha" type="matrix" values="0 0 0 0 0 0 0 0 0 0 0 0 0 0 0 0 0 0 127 0" result="hardAlpha"/>
<feOffset dy="4"/>
<feGaussianBlur stdDeviation="2"/>
<feComposite in2="hardAlpha" operator="out"/>
<feColorMatrix type="matrix" values="0 0 0 0 0 0 0 0 0 0 0 0 0 0 0 0 0 0 0.25 0"/>
<feBlend mode="normal" in2="BackgroundImageFix" result="effect1_dropShadow_235_14"/>
<feBlend mode="normal" in="SourceGraphic" in2="effect1_dropShadow_235_14" result="shape"/>
</filter>
</defs>
</svg>
