<svg width="174" height="174" viewBox="0 0 174 174" fill="none" xmlns="http://www.w3.org/2000/svg">
<g filter="url(#filter0_d_235_15)">
<rect x="4" width="166" height="166" rx="30" fill="white"/>
<rect x="12.5" y="8.5" width="149" height="149" rx="21.5" stroke="#5634AE" stroke-width="17"/>
</g>
<path d="M68.565 57.328C68.8637 57.7973 69.0557 58.3947 69.141 59.12C69.3543 60.6133 69.4397 62.1493 69.397 63.728C69.397 65.264 69.4183 66.7787 69.461 68.272C69.461 70.0213 69.461 71.7493 69.461 73.456C69.5037 75.1627 69.525 76.8907 69.525 78.64V84.08H72.277C72.7463 84.08 73.237 84.144 73.749 84.272C74.261 84.3573 74.7303 84.528 75.157 84.784C75.5837 85.04 75.9463 85.36 76.245 85.744C76.5437 86.128 76.7143 86.5973 76.757 87.152C76.757 88.5173 76.3303 89.456 75.477 89.968C74.6237 90.4373 73.5997 90.7147 72.405 90.8C72.3197 90.8 72.1277 90.8213 71.829 90.864C71.573 90.864 71.2743 90.864 70.933 90.864C70.5917 90.864 70.2717 90.864 69.973 90.864C69.717 90.864 69.5677 90.8213 69.525 90.736V95.088C69.525 95.5573 69.525 96.0907 69.525 96.688C69.525 97.2853 69.4823 97.8827 69.397 98.48C69.3117 99.0347 69.141 99.568 68.885 100.08C68.6717 100.592 68.3303 100.997 67.861 101.296C67.6477 101.424 67.3703 101.531 67.029 101.616C66.7303 101.659 66.389 101.701 66.005 101.744C65.621 101.787 65.237 101.808 64.853 101.808C64.5117 101.765 64.213 101.701 63.957 101.616C63.189 101.36 62.6983 100.827 62.485 100.016C62.2717 99.1627 62.1223 98.3733 62.037 97.648C62.037 97.52 62.037 97.1147 62.037 96.432C62.037 95.7067 62.037 94.96 62.037 94.192C62.037 93.3813 62.0157 92.656 61.973 92.016C61.9303 91.376 61.8663 91.056 61.781 91.056H50.517C49.2797 91.056 47.9783 91.0347 46.613 90.992C45.2477 90.9493 44.0743 90.5653 43.093 89.84C42.325 89.2853 41.877 88.6667 41.749 87.984C41.621 87.2587 41.6637 86.5547 41.877 85.872C42.133 85.1467 42.4957 84.4427 42.965 83.76C43.4343 83.0773 43.8823 82.4587 44.309 81.904C45.9303 79.728 47.4877 77.5093 48.981 75.248C50.517 72.9867 52.053 70.7467 53.589 68.528C54.4423 67.376 55.317 66.2667 56.213 65.2C57.1517 64.1333 58.0263 63.024 58.837 61.872C59.4343 60.976 60.0743 60.0587 60.757 59.12C61.4823 58.1813 62.3783 57.456 63.445 56.944C64.469 56.4747 65.4503 56.24 66.389 56.24C67.3277 56.24 68.053 56.6027 68.565 57.328ZM62.229 68.848L51.605 83.824H62.229V68.848ZM86.3525 91.248C86.4378 91.2053 86.8005 91.2053 87.4405 91.248C88.1232 91.248 88.8698 91.2693 89.6805 91.312C90.5338 91.312 91.3445 91.3333 92.1125 91.376C92.8805 91.376 93.3925 91.376 93.6485 91.376C93.6485 91.12 93.6485 90.6933 93.6485 90.096C93.6912 89.4987 93.7338 88.8373 93.7765 88.112C93.8192 87.3867 93.8405 86.6613 93.8405 85.936C93.8832 85.168 93.9258 84.528 93.9685 84.016C93.5845 83.9307 93.2005 83.8453 92.8165 83.76C92.4752 83.632 92.1338 83.4827 91.7925 83.312C90.5978 82.8 89.4672 82.1813 88.4005 81.456C87.3765 80.7307 86.4805 79.8987 85.7125 78.96C84.9445 77.9787 84.3472 76.8907 83.9205 75.696C83.4938 74.5013 83.2805 73.2 83.2805 71.792C83.2805 70.256 83.4938 68.8907 83.9205 67.696C84.3472 66.5013 84.9232 65.4347 85.6485 64.496H84.9445C83.9205 64.496 83.0245 64.176 82.2565 63.536C81.5312 62.8533 81.1685 62.0427 81.1685 61.104C81.1685 60.1227 81.5312 59.312 82.2565 58.672C83.0245 57.9893 83.9205 57.648 84.9445 57.648H93.3925V55.024C93.3925 54.1707 93.7552 53.488 94.4805 52.976C95.2058 52.4213 96.0805 52.144 97.1045 52.144C98.1712 52.144 99.0672 52.4213 99.7925 52.976C100.518 53.488 100.881 54.1707 100.881 55.024V57.648H109.713C110.779 57.648 111.675 57.9893 112.401 58.672C113.169 59.312 113.553 60.1227 113.553 61.104C113.553 62.0427 113.169 62.8533 112.401 63.536C111.675 64.176 110.779 64.496 109.713 64.496H109.521C110.246 65.4347 110.822 66.5013 111.249 67.696C111.718 68.8907 111.953 70.256 111.953 71.792C111.953 73.7973 111.505 75.6107 110.609 77.232C109.713 78.8107 108.454 80.2187 106.833 81.456C105.254 82.608 103.505 83.44 101.585 83.952C101.627 84.464 101.649 85.0827 101.649 85.808C101.691 86.5333 101.713 87.28 101.713 88.048C101.713 88.7733 101.713 89.4347 101.713 90.032C101.713 90.6293 101.713 91.056 101.713 91.312V91.376H110.225C111.633 91.376 112.763 91.632 113.617 92.144C114.086 92.4427 114.449 92.848 114.705 93.36C114.961 93.8293 115.11 94.3413 115.153 94.896C115.238 95.4507 115.217 96.0053 115.089 96.56C115.003 97.1147 114.854 97.584 114.641 97.968C114.257 98.6507 113.702 99.0773 112.977 99.248C112.251 99.376 111.547 99.44 110.865 99.44H85.5845C85.5845 99.44 85.4565 99.44 85.2005 99.44C84.9445 99.3973 84.6458 99.3547 84.3045 99.312C83.9632 99.2267 83.6005 99.1413 83.2165 99.056C82.8325 98.9707 82.4912 98.864 82.1925 98.736C81.2965 98.2667 80.7418 97.392 80.5285 96.112C80.4432 95.4293 80.4858 94.7893 80.6565 94.192C80.8698 93.5947 81.1898 93.104 81.6165 92.72C82.3845 92.08 83.1738 91.6747 83.9845 91.504C84.8378 91.3333 85.6272 91.248 86.3525 91.248ZM128.913 74.032C129.126 73.9893 129.318 73.9893 129.489 74.032C129.702 74.0747 129.915 74.096 130.129 74.096C130.385 74.1387 130.619 74.1813 130.833 74.224C131.089 74.224 131.345 74.2453 131.601 74.288C132.07 74.3733 132.539 74.544 133.009 74.8C133.478 75.0133 133.841 75.3547 134.097 75.824C134.353 76.336 134.481 76.912 134.481 77.552C134.481 77.8507 134.481 78.1493 134.481 78.448C134.481 78.7467 134.438 79.0453 134.353 79.344C134.267 79.6853 134.161 80.048 134.033 80.432C133.905 80.816 133.713 81.1147 133.457 81.328C132.902 81.7547 132.305 82.032 131.665 82.16C130.982 82.2453 130.15 82.2667 129.169 82.224C128.187 82.1813 127.355 82.1813 126.673 82.224C126.63 82.2667 126.587 82.288 126.545 82.288H126.481V82.352C126.481 82.3947 126.459 82.4373 126.417 82.48C126.417 82.48 126.417 82.5013 126.417 82.544C126.374 83.6107 126.353 84.6347 126.353 85.616C126.395 86.5547 126.417 87.5787 126.417 88.688C126.502 90.9067 126.502 93.0827 126.417 95.216V96.112C126.417 96.6667 126.417 97.2853 126.417 97.968C126.417 98.608 126.353 99.248 126.225 99.888C126.139 100.528 125.99 101.147 125.777 101.744C125.606 102.341 125.329 102.832 124.945 103.216C124.305 103.771 123.601 104.048 122.833 104.048H122.705C121.681 104.005 120.849 103.685 120.209 103.088C119.611 102.533 119.163 101.851 118.865 101.04C118.566 100.229 118.374 99.3973 118.289 98.544C118.203 97.648 118.161 96.8587 118.161 96.176V58.16C118.161 58.1173 118.161 57.9253 118.161 57.584C118.161 57.2 118.182 56.7733 118.225 56.304C118.31 55.792 118.438 55.28 118.609 54.768C118.822 54.2133 119.099 53.7653 119.441 53.424C119.782 53.1253 120.23 52.912 120.785 52.784C121.339 52.6133 121.851 52.528 122.321 52.528C123.302 52.528 124.113 52.848 124.753 53.488C125.307 54.0853 125.649 54.7253 125.777 55.408C125.905 56.048 125.99 56.7307 126.033 57.456C126.075 57.584 126.097 57.712 126.097 57.84C126.097 57.968 126.118 58.1173 126.161 58.288C126.246 58.9707 126.289 59.696 126.289 60.464C126.289 61.232 126.31 62 126.353 62.768C126.353 63.2373 126.353 63.7067 126.353 64.176C126.395 64.6027 126.417 65.0507 126.417 65.52V72.432C126.417 72.6453 126.417 72.88 126.417 73.136C126.417 73.392 126.459 73.6267 126.545 73.84C126.545 73.8827 126.758 73.904 127.185 73.904C127.611 73.904 127.867 73.9253 127.953 73.968C128.081 73.968 128.209 73.9893 128.337 74.032C128.507 74.032 128.657 74.032 128.785 74.032H128.913ZM98.8325 76.912C100.198 76.656 101.393 76.144 102.417 75.376C103.441 74.608 103.953 73.4133 103.953 71.792C103.953 70.8533 103.761 70.064 103.377 69.424C103.035 68.7413 102.566 68.208 101.969 67.824C101.414 67.3973 100.753 67.0773 99.9845 66.864C99.2165 66.6507 98.4485 66.544 97.6805 66.544C96.8698 66.5013 96.0805 66.5653 95.3125 66.736C94.5445 66.9067 93.8618 67.2053 93.2645 67.632C92.6672 68.016 92.1765 68.5493 91.7925 69.232C91.4512 69.9147 91.2805 70.768 91.2805 71.792C91.2805 72.944 91.4938 73.904 91.9205 74.672C92.3898 75.3973 92.9872 75.952 93.7125 76.336C94.4378 76.72 95.2485 76.9547 96.1445 77.04C97.0405 77.1253 97.9365 77.0827 98.8325 76.912Z" fill="#5634AE"/>
<defs>
<filter id="filter0_d_235_15" x="0" y="0" width="174" height="174" filterUnits="userSpaceOnUse" color-interpolation-filters="sRGB">
<feFlood flood-opacity="0" result="BackgroundImageFix"/>
<feColorMatrix in="SourceAlpha" type="matrix" values="0 0 0 0 0 0 0 0 0 0 0 0 0 0 0 0 0 0 127 0" result="hardAlpha"/>
<feOffset dy="4"/>
<feGaussianBlur stdDeviation="2"/>
<feComposite in2="hardAlpha" operator="out"/>
<feColorMatrix type="matrix" values="0 0 0 0 0 0 0 0 0 0 0 0 0 0 0 0 0 0 0.25 0"/>
<feBlend mode="normal" in2="BackgroundImageFix" result="effect1_dropShadow_235_15"/>
<feBlend mode="normal" in="SourceGraphic" in2="effect1_dropShadow_235_15" result="shape"/>
</filter>
</defs>
</svg>
